# xmcd
#
# Track frame offsets:
#	150
#	22658
#	40090
#	61542
#	80709
#	101783
#	118820
#	137757
#	157499
#	177460
#	199276
#	215629
#	233806
#	253778
#	272086
#	290292
#	310780
#	326972
#
# Disc length: 4611 seconds
#
# Revision: 1
# Processed by: cddbd v1.5.2PL0 Copyright (c) Steve Scherf et al.
# Submitted via: EasyCDDAExtractor 15.3.0.1
#
DISCID=11120112
DTITLE=Milly Quezada - Personalidad
DYEAR=2015
DGENRE=Latin
TTITLE0=Entre Tu Cuerpo Y El Mio
TTITLE1=En Tus Manos
TTITLE2=Lo Tengo Todo
TTITLE3=Quizas
TTITLE4=Vive
TTITLE5=Para Darte Mi Vida (Duo Con Elvis Crespo)
TTITLE6=La Fiesta
TTITLE7=Burbujas De Amor
TTITLE8=Para Olvidarte
TTITLE9=Me Duele El Alma (Version Salsa)
TTITLE10=Infiel
TTITLE11=Pideme (Version Merengue)
TTITLE12=Por Fuera Y Por Dentro
TTITLE13=Devuelveme
TTITLE14=Yo Tengo Un Negro
TTITLE15=Solo Dame Amor
TTITLE16=Pena
TTITLE17=Un Nuevo Amor (Version Merengue)
EXTD=
EXTT0=
EXTT1=
EXTT2=
EXTT3=
EXTT4=
EXTT5=
EXTT6=
EXTT7=
EXTT8=
EXTT9=
EXTT10=
EXTT11=
EXTT12=
EXTT13=
EXTT14=
EXTT15=
EXTT16=
EXTT17=
PLAYORDER=
